HIERARCHY
ROOT Hips
{
	OFFSET 0.000000 0.000000 0.000000
	CHANNELS 6 Xposition Yposition Zposition Xrotation Yrotation Zrotation
	JOINT LeftUpLeg_virtual
	{
		OFFSET 0.000000 0.000000 0.000000
		CHANNELS 3 Xrotation Yrotation Zrotation
		JOINT LeftUpLeg
		{
			OFFSET 11.394100 -6.187798 -0.413800
			CHANNELS 3 Xrotation Yrotation Zrotation
			JOINT LeftLeg
			{
				OFFSET 0.430247 -32.302673 3.732800
				CHANNELS 3 Xrotation Yrotation Zrotation
				JOINT LeftFoot
				{
					OFFSET -0.430247 -48.264931 -6.423300
					CHANNELS 3 Xrotation Yrotation Zrotation
					JOINT LeftToeBase
					{
						OFFSET 4.230900 -16.068199 23.438400
						CHANNELS 3 Xrotation Yrotation Zrotation
						JOINT LeftToe_End
						{
							OFFSET 4.510700 0.695400 19.974600
							CHANNELS 3 Xrotation Yrotation Zrotation
							End Site
							{
								OFFSET 0 0 0
							}
						}
					}
				}
			}
		}
	}
	JOINT RightUpLeg_virtual
	{
		OFFSET 0.000000 0.000000 0.000000
		CHANNELS 3 Xrotation Yrotation Zrotation
		JOINT RightUpLeg
		{
			OFFSET -11.333700 -6.187798 -0.413800
			CHANNELS 3 Xrotation Yrotation Zrotation
			JOINT RightLeg
			{
				OFFSET -0.430392 -32.302628 3.733000
				CHANNELS 3 Xrotation Yrotation Zrotation
				JOINT RightFoot
				{
					OFFSET 0.430392 -48.264973 -6.423500
					CHANNELS 3 Xrotation Yrotation Zrotation
					JOINT RightToeBase
					{
						OFFSET -4.230900 -16.068199 23.438400
						CHANNELS 3 Xrotation Yrotation Zrotation
						JOINT RightToe_End
						{
							OFFSET -4.510700 0.695400 19.974600
							CHANNELS 3 Xrotation Yrotation Zrotation
							End Site
							{
								OFFSET 0 0 0
							}
						}
					}
				}
			}
		}
	}
	JOINT Spine_virtual
	{
		OFFSET 0.000000 0.000000 0.000000
		CHANNELS 3 Xrotation Yrotation Zrotation
		JOINT Spine
		{
			OFFSET -0.002400 12.777504 0.315300
			CHANNELS 3 Xrotation Yrotation Zrotation
			JOINT Spine1
			{
				OFFSET -0.002067 5.816869 0.032633
				CHANNELS 3 Xrotation Yrotation Zrotation
				JOINT Spine1_split
				{
					OFFSET -0.002067 5.816869 0.032633
					CHANNELS 3 Xrotation Yrotation Zrotation
					JOINT Spine2
					{
						OFFSET -0.002067 5.816869 0.032633
						CHANNELS 3 Xrotation Yrotation Zrotation
						JOINT Neck_virtual
						{
							OFFSET 0.000000 0.000000 0.000000
							CHANNELS 3 Xrotation Yrotation Zrotation
							JOINT Neck
							{
								OFFSET -0.003700 21.199493 -0.826900
								CHANNELS 3 Xrotation Yrotation Zrotation
								JOINT Head
								{
									OFFSET 0.000000 20.442200 4.834800
									CHANNELS 3 Xrotation Yrotation Zrotation
									JOINT HeadTop_End
									{
										OFFSET 0.000000 34.668396 4.968400
										CHANNELS 3 Xrotation Yrotation Zrotation
										End Site
										{
											OFFSET 0 0 0
										}
									}
								}
							}
						}
						JOINT LeftShoulder_virtual
						{
							OFFSET 0.000000 0.000000 0.000000
							CHANNELS 3 Xrotation Yrotation Zrotation
							JOINT LeftShoulder
							{
								OFFSET 3.288150 8.794197 -1.372250
								CHANNELS 3 Xrotation Yrotation Zrotation
								JOINT LeftShoulder_split
								{
									OFFSET 3.288150 8.794197 -1.372250
									CHANNELS 3 Xrotation Yrotation Zrotation
									JOINT LeftArm
									{
										OFFSET 11.953299 -2.279007 -0.146200
										CHANNELS 3 Xrotation Yrotation Zrotation
										JOINT LeftForeArm
										{
											OFFSET 18.448900 0.000000 0.000000
											CHANNELS 3 Xrotation Yrotation Zrotation
											JOINT LeftHand
											{
												OFFSET 29.527798 0.000000 0.000000
												CHANNELS 3 Xrotation Yrotation Zrotation
												End Site
												{
													OFFSET 0 0 0
												}
											}
										}
									}
								}
							}
						}
						JOINT RightShoulder_virtual
						{
							OFFSET 0.000000 0.000000 0.000000
							CHANNELS 3 Xrotation Yrotation Zrotation
							JOINT RightShoulder
							{
								OFFSET -3.249400 8.794197 -1.372250
								CHANNELS 3 Xrotation Yrotation Zrotation
								JOINT RightShoulder_split
								{
									OFFSET -3.249400 8.794197 -1.372250
									CHANNELS 3 Xrotation Yrotation Zrotation
									JOINT RightArm
									{
										OFFSET -11.953299 -2.279007 -0.146200
										CHANNELS 3 Xrotation Yrotation Zrotation
										JOINT RightForeArm
										{
											OFFSET -18.448900 0.000000 0.000000
											CHANNELS 3 Xrotation Yrotation Zrotation
											JOINT RightHand
											{
												OFFSET -29.527802 0.000000 0.000000
												CHANNELS 3 Xrotation Yrotation Zrotation
												End Site
												{
													OFFSET 0 0 0
												}
											}
										}
									}
								}
							}
						}
					}
				}
			}
		}
	}
}
MOTION
Frames: 7
Frame Time: 0.03333333
4.977934 100.506973 -1.087566 0.000000 0.000000 0.000000 -1.784817 -16.381705 -2.753412 -11.972365 23.018388 11.768479 22.029906 10.418979 5.074897 -9.637373 8.659075 -10.425555 1.877980 0.350337 -1.702383 0.000000 0.000000 0.000000 -1.400441 -14.359084 -2.768171 -27.264556 -16.363986 -11.186924 17.331658 6.632723 -4.537875 9.814184 8.589310 5.599713 -1.100160 0.121337 1.004869 0.000000 0.000000 0.000000 -2.451166 -16.135053 -3.254169 0.401564 -0.496702 -1.363441 0.060802 -1.038005 -0.543794 1.133304 -1.027166 0.156274 0.000000 0.000000 0.000000 0.970302 -0.438609 -0.571857 1.240886 1.118754 2.472940 -1.187160 14.963495 -1.330607 0.000000 0.000000 0.000000 0.551610 -0.268876 -0.676075 -0.502524 9.185253 -0.240497 -5.819671 0.178306 -1.092292 40.514391 -59.545623 -27.815233 0.125766 -28.404125 1.498571 0.000000 0.000000 0.000000 1.024037 -0.553901 -1.002511 5.128846 4.482441 -14.491298 1.646518 4.959652 -0.596110 -40.107639 -18.278539 40.612609 179.847227 70.810716 179.893495 0.000000 0.000000 0.000000 
4.813250 100.529724 -1.067230 0.000000 0.000000 0.000000 -1.779053 -16.047000 -2.779161 -12.172117 22.890402 12.076418 22.099065 10.382689 5.063442 -9.467906 8.402419 -10.591718 1.850999 0.351403 -1.671872 0.000000 0.000000 0.000000 -1.396231 -14.038622 -2.796416 -27.021002 -16.129370 -11.057957 17.522767 6.518043 -4.351857 9.557800 8.065541 5.380473 -1.039399 0.071013 1.008954 0.000000 0.000000 0.000000 -2.431522 -15.804525 -3.278580 0.365498 -0.471596 -1.209618 0.064155 -1.034453 -0.461061 1.118191 -0.924251 0.141057 0.000000 0.000000 0.000000 0.923769 -0.453182 -0.480532 1.164778 1.108510 2.374582 -1.254047 14.811275 -1.306961 0.000000 0.000000 0.000000 0.502246 -0.256159 -0.605276 -0.473590 9.158294 -0.397934 -5.824057 0.023623 -1.047056 40.638888 -59.797787 -27.704817 0.075386 -28.389430 1.475743 0.000000 0.000000 0.000000 1.003971 -0.539983 -0.938279 5.099454 4.585768 -13.666403 1.624685 4.929248 -0.658549 -37.546335 -15.684496 40.872245 179.978025 71.540405 179.802203 0.000000 0.000000 0.000000 
4.634675 100.559914 -1.040604 0.000000 0.000000 0.000000 -1.770764 -15.674118 -2.802721 -12.393419 22.702080 12.397011 22.177674 10.349903 5.030940 -9.271758 8.162535 -10.751228 1.858168 0.356835 -1.650910 0.000000 0.000000 0.000000 -1.393211 -13.679779 -2.824002 -26.736255 -15.947066 -10.915787 17.674822 6.408162 -4.172359 9.301036 7.532917 5.158064 -1.006395 0.027727 0.995731 0.000000 0.000000 0.000000 -2.400177 -15.452890 -3.301788 0.327872 -0.453970 -1.058813 0.072328 -1.041094 -0.385576 1.108150 -0.828239 0.111561 0.000000 0.000000 0.000000 0.882757 -0.472110 -0.399288 1.081025 1.100410 2.325505 -1.302414 14.659229 -1.264325 0.000000 0.000000 0.000000 0.462577 -0.253007 -0.540987 -0.444708 9.121251 -0.509530 -5.799216 -0.128916 -1.023670 40.667728 -60.074929 -27.655538 0.018573 -28.315485 1.441835 0.000000 0.000000 0.000000 0.987355 -0.534442 -0.878597 5.055338 4.680449 -12.712779 1.604406 4.898715 -0.729879 -34.915196 -12.964643 41.035254 -179.865614 72.401289 179.689778 0.000000 0.000000 0.000000 
4.441993 100.596298 -1.005138 0.000000 0.000000 0.000000 -1.749199 -15.255287 -2.811336 -12.629557 22.453456 12.705788 22.235167 10.320877 4.990249 -9.048265 7.944855 -10.905789 1.884699 0.365764 -1.640660 0.000000 0.000000 0.000000 -1.381965 -13.279206 -2.840069 -26.422131 -15.833973 -10.768465 17.786950 6.316386 -4.013940 9.024609 7.020672 4.948374 -1.017427 -0.004375 0.972905 0.000000 0.000000 0.000000 -2.356508 -15.077632 -3.311691 0.287529 -0.446005 -0.916216 0.083166 -1.055097 -0.322767 1.099605 -0.718624 0.075006 0.000000 0.000000 0.000000 0.843707 -0.493583 -0.333373 0.979250 1.089312 2.329461 -1.343487 14.494379 -1.190938 0.000000 0.000000 0.000000 0.427588 -0.255063 -0.489698 -0.419887 9.084038 -0.559237 -5.738155 -0.275397 -1.009754 40.607042 -60.377137 -27.682494 -0.042804 -28.171530 1.398051 0.000000 0.000000 0.000000 0.970839 -0.535807 -0.829397 5.000034 4.766538 -11.637092 1.568330 4.843593 -0.790822 -32.185214 -10.096389 41.053456 -179.675230 73.400696 179.550661 0.000000 0.000000 0.000000 
4.239357 100.633255 -0.958591 0.000000 0.000000 0.000000 -1.707447 -14.796242 -2.795663 -12.868558 22.153478 12.985852 22.250352 10.292212 4.951422 -8.798000 7.745431 -11.055801 1.908782 0.374655 -1.634418 0.000000 0.000000 0.000000 -1.345620 -12.842330 -2.833709 -26.101341 -15.799336 -10.626150 17.880906 6.247992 -3.888736 8.691766 6.544953 4.726531 -1.028304 -0.022055 0.951499 0.000000 0.000000 0.000000 -2.299648 -14.685318 -3.298765 0.245952 -0.450347 -0.785640 0.093946 -1.072655 -0.275095 1.088058 -0.621467 0.038685 0.000000 0.000000 0.000000 0.802328 -0.515075 -0.284663 0.851604 1.068687 2.376246 -1.379174 14.299797 -1.079217 0.000000 0.000000 0.000000 0.392749 -0.259575 -0.452441 -0.404333 9.053562 -0.540377 -5.649518 -0.408910 -0.994397 40.474974 -60.693935 -27.785478 -0.105623 -27.968100 1.351147 0.000000 0.000000 0.000000 0.949312 -0.540604 -0.792331 4.936427 4.840288 -10.466565 1.541266 4.760566 -0.837986 -29.350761 -7.087086 40.912335 -179.459368 74.536140 179.394372 0.000000 0.000000 0.000000 
4.027387 100.660080 -0.912300 0.000000 0.000000 0.000000 -1.641483 -14.325323 -2.750485 -13.099930 21.821047 13.227250 22.218252 10.259990 4.914514 -8.524460 7.559980 -11.202070 1.912921 0.381234 -1.626195 0.000000 0.000000 0.000000 -1.281532 -12.392151 -2.800682 -25.811777 -15.846343 -10.495743 17.990445 6.200648 -3.803957 8.268458 6.114123 4.472257 -0.995069 -0.025080 0.939614 0.000000 0.000000 0.000000 -2.226041 -14.293241 -3.255847 0.204127 -0.466411 -0.667795 0.100018 -1.092342 -0.239285 1.069317 -0.521562 0.000510 0.000000 0.000000 0.000000 0.751842 -0.535151 -0.249652 0.694582 1.038531 2.446674 -1.414097 14.073389 -0.932825 0.000000 0.000000 0.000000 0.350213 -0.263823 -0.426158 -0.398085 9.037586 -0.466067 -5.545851 -0.536684 -0.971688 40.302344 -61.024762 -27.932842 -0.161345 -27.720261 1.307983 0.000000 0.000000 0.000000 0.918399 -0.547270 -0.765087 4.869586 4.909186 -9.235808 1.521501 4.647471 -0.875006 -26.414949 -3.953613 40.625504 -179.232770 75.835126 179.236690 0.000000 0.000000 0.000000 
3.807449 100.672485 -0.868347 0.000000 0.000000 0.000000 -1.551105 -13.871729 -2.677099 -13.319423 21.478781 13.430019 22.146957 10.228349 4.876910 -8.242986 7.393642 -11.334748 1.901456 0.384467 -1.613921 0.000000 0.000000 0.000000 -1.188216 -11.960116 -2.741138 -25.602464 -15.963788 -10.386450 18.174899 6.175034 -3.758933 7.763215 5.735745 4.191210 -0.929866 -0.017656 0.934034 0.000000 0.000000 0.000000 -2.130222 -13.910508 -3.184827 0.161886 -0.492008 -0.558655 0.096697 -1.112225 -0.207633 1.050526 -0.442210 -0.026197 0.000000 0.000000 0.000000 0.689767 -0.553652 -0.219626 0.508672 1.002730 2.516763 -1.450848 13.813643 -0.764187 0.000000 0.000000 0.000000 0.294515 -0.265789 -0.402796 -0.399966 9.036905 -0.368556 -5.449148 -0.645027 -0.947213 40.168510 -61.356778 -28.055588 -0.203024 -27.447491 1.277297 0.000000 0.000000 0.000000 0.873921 -0.554051 -0.740423 4.801720 4.981188 -7.988729 1.512766 4.530209 -0.909821 -23.412883 -0.738640 40.247337 -179.006759 77.348655 179.083366 0.000000 0.000000 0.000000 
